<?xml version="1.0" standalone="no"?>
<!DOCTYPE svg PUBLIC "-//W3C//DTD SVG 20010904//EN"
 "http://www.w3.org/TR/2001/REC-SVG-20010904/DTD/svg10.dtd">
<svg version="1.0" xmlns="http://www.w3.org/2000/svg"
 width="123.000000pt" height="102.000000pt" viewBox="0 0 123.000000 102.000000"
 preserveAspectRatio="xMidYMid meet">

<g transform="translate(0.000000,102.000000) scale(0.100000,-0.100000)"
fill="#000000" stroke="none">
<path d="M55 943 c8 -45 49 -100 96 -128 32 -19 55 -20 441 -23 267 -2 421 1
447 8 52 14 99 54 122 105 38 82 89 75 -547 75 l-566 0 7 -37z"/>
<path d="M50 320 l0 -280 95 0 95 0 0 185 0 185 383 0 c232 0 397 4 419 10 50
14 97 55 119 105 38 82 89 75 -546 75 l-565 0 0 -280z"/>
</g>
</svg>
